{"asset":{"version":"2.0","generator":"THREE.GLTFExporter"},"scenes":[{"nodes":[0],"name":"AuxScene"}],"scene":0,"nodes":[{"mesh":0}],"bufferViews":[{"buffer":0,"byteOffset":0,"byteLength":5280,"target":34962,"byteStride":12},{"buffer":0,"byteOffset":5280,"byteLength":5280,"target":34962,"byteStride":12},{"buffer":0,"byteOffset":10560,"byteLength":3520,"target":34962,"byteStride":8},{"buffer":0,"byteOffset":14080,"byteLength":1320,"target":34963}],"buffers":[{"byteLength":15400,"uri":"data:application/octet-stream;base64,"}],"accessors":[{"bufferView":0,"componentType":5126,"count":440,"max":[1,5.433899879455566,0.17158600687980652],"min":[-1,-0.33475300669670105,-2.956279993057251],"type":"VEC3"},{"bufferView":1,"componentType":5126,"count":440,"max":[1,1,1],"min":[-0.9045079946517944,-1,-1],"type":"VEC3"},{"bufferView":2,"componentType":5126,"count":440,"max":[0.9950000047683716,0.9950000047683716],"min":[0.004999999888241291,0.004999999888241291],"type":"VEC2"},{"bufferView":3,"componentType":5123,"count":660,"max":[439],"min":[0],"type":"SCALAR"}],"materials":[{"pbrMetallicRoughness":{"baseColorFactor":[0.5333333333333333,0.5333333333333333,0.5333333333333333,1],"metallicFactor":0,"roughnessFactor":1}}],"meshes":[{"primitives":[{"mode":4,"attributes":{"POSITION":0,"NORMAL":1,"TEXCOORD_0":2},"indices":3,"material":0}]}]}